<svg width="22" height="18" fill="none" xmlns="http://www.w3.org/2000/svg"><path d="M22 2.116a9.404 9.404 0 01-2.599.712A4.485 4.485 0 0021.385.336a9.014 9.014 0 01-2.86 1.091 4.509 4.509 0 00-7.802 3.084c0 .358.03.702.105 1.029-3.75-.183-7.067-1.98-9.296-4.718a4.54 4.54 0 00-.618 2.28c0 1.562.805 2.947 2.004 3.748A4.454 4.454 0 01.88 6.295v.05a4.531 4.531 0 003.614 4.43 4.5 4.5 0 01-1.183.15c-.289 0-.58-.017-.854-.078.585 1.787 2.243 3.1 4.215 3.142a9.063 9.063 0 01-5.593 1.924c-.37 0-.724-.017-1.079-.062a12.697 12.697 0 006.919 2.024c8.3 0 12.837-6.875 12.837-12.834 0-.2-.007-.392-.017-.583A8.999 8.999 0 0022 2.116z" fill="#fff"/></svg>