<svg width="22" height="22" fill="none" xmlns="http://www.w3.org/2000/svg"><path fill-rule="evenodd" clip-rule="evenodd" d="M6.875 0h8.25A6.876 6.876 0 0122 6.875v8.25A6.876 6.876 0 0115.125 22h-8.25A6.876 6.876 0 010 15.125v-8.25A6.876 6.876 0 016.875 0zm8.25 19.938a4.818 4.818 0 004.813-4.813v-8.25a4.818 4.818 0 00-4.813-4.813h-8.25a4.818 4.818 0 00-4.813 4.813v8.25a4.818 4.818 0 004.813 4.813h8.25z" fill="#fff"/><path fill-rule="evenodd" clip-rule="evenodd" d="M5.5 11a5.5 5.5 0 1111 0 5.5 5.5 0 01-11 0zm2.063 0A3.442 3.442 0 0011 14.438 3.442 3.442 0 0014.438 11 3.441 3.441 0 0011 7.562 3.441 3.441 0 007.562 11z" fill="#fff"/><path d="M16.913 5.82a.733.733 0 100-1.465.733.733 0 000 1.465z" fill="#fff"/></svg>