<svg width="128" height="34" fill="none" xmlns="http://www.w3.org/2000/svg"><path fill-rule="evenodd" clip-rule="evenodd" d="M105.23 22.26c2.49 0 4.46-2.69 4.46-6v-8h2v8c0 4.4-2.88 7.95-6.42 7.95s-6.42-3.55-6.42-7.95v-8h2v8c-.08 3.36 1.89 6.05 4.37 6.05l.01-.05zm-48.17 2.07h-2V22.9a7.69 7.69 0 01-4.4 1.39 8 8 0 116-13.23l-1.47 1.31a6 6 0 10-4.46 10 5.77 5.77 0 004.38-2h-5.4v-2h7.37l-.02 5.96zM23.23 8.39h-2v15.92h8v-2h-6V8.39zm12.23 12a6 6 0 100-12 6 6 0 000 12zm0-2a4 4 0 10-4-4 4 4 0 004 3.98v.02zm4 5.94v-2h-8v2h8zm30.96-9.9a6 6 0 00-6-6l.02-.04a6 6 0 00-6.02 6.04 6 6 0 0012 0zm-6 4a4 4 0 10-4-4 4 4 0 004.02 3.94l-.02.06zm4 5.94v-2h-8v2h8zm4.13-15.98h2v15.9h-2V8.39zm6.77 0h-2v15.93h2v-4h.31a6 6 0 100-11.93 1.47 1.47 0 00-.31 0zm0 2v.047l-.01.003.01-.05zm0 .047c.1-.034.205-.056.31-.067a4 4 0 110 7.93h-.31v-7.863zm14.377-.87l.033-.027-.01.05-.023-.024zM90.91 8.44a3.74 3.74 0 012.787 1.126L92.25 10.71a1.94 1.94 0 00-3.33 1.13V12c0 .88.61 1.47 1.8 1.55 4.58.28 6.68 2.43 6.68 5.27V19a5.9 5.9 0 01-10.17 3.42l1.53-1.18a3.6 3.6 0 002.8 1.14A3.74 3.74 0 0095.48 19v-.14c0-2.67-2.62-3.16-4.89-3.38-2.1-.2-3.61-1.51-3.61-3.4V12a3.85 3.85 0 013.93-3.56zm34.13 15.82h2l-.02-15.87-6.6 8.69-6.6-8.69v15.9h2v-9.93l4.61 6 4.61-6v9.9z" fill="#fff"/><path fill-rule="evenodd" clip-rule="evenodd" d="M11.63 6A5.44 5.44 0 10.75 6v16.45l4.48 3.21v7.82h1.92v-7.82l4.48-3.21V6zm-1.92 9.2l-2.56 2.56v-2.4l2.56-2.56v2.4zm-4.44.16L2.71 12.8v2.4l2.56 2.56v-2.4zm4.44-5.28L6.19 13.6 2.67 10V7.6l3.52 3.52L9.71 7.6v2.48zm-.12-4.99a3.54 3.54 0 00-3.4-2.61v-.04a3.54 3.54 0 00-3.4 2.65l3.4 3.39 3.4-3.39zM2.67 21.48v-3.6l2.56 2.56v2.86l-2.56-1.82zm4.48-1.04v2.87l2.56-1.84v-3.59l-2.56 2.56z" fill="#FFAC12"/></svg>